<svg width="30" height="27" viewBox="0 0 30 27" fill="none" xmlns="http://www.w3.org/2000/svg">
<path d="M29.8754 13.2516C29.8754 5.96378 23.3055 0.0568848 15.1997 0.0568848C7.09392 0.0568848 0.524048 5.96378 0.524048 13.2516C0.524048 19.8381 5.8877 25.2967 12.9079 26.2873V17.069H9.1847V13.2516H12.9079V10.3451C12.9079 7.04105 15.0952 5.21186 18.4485 5.21186C20.0567 5.21186 21.7374 5.47214 21.7374 5.47214V8.7184H19.8879C18.0625 8.7184 17.4996 9.73783 17.4996 10.7789V13.2516H21.5685L20.9172 17.069H17.4996V26.2873C24.5117 25.2967 29.8754 19.8381 29.8754 13.2516Z" fill="#1877F2"/>
<path d="M20.9088 17.0691L21.5601 13.2517H17.4911V10.779C17.4911 9.73788 18.0621 8.71845 19.8795 8.71845H21.729V5.47219C21.729 5.47219 20.0483 5.21191 18.44 5.21191C15.0867 5.21191 12.8995 7.0411 12.8995 10.3452V13.2517H9.17627V17.0691H12.8995V26.2873C13.6473 26.3958 14.4113 26.4464 15.1913 26.4464C15.9713 26.4464 16.7352 26.3885 17.4831 26.2873V17.0691H20.9088Z" fill="url(#paint0_linear_8_3226)"/>
<defs>
<linearGradient id="paint0_linear_8_3226" x1="15.4526" y1="5.21191" x2="15.4526" y2="26.4464" gradientUnits="userSpaceOnUse">
<stop offset="0.817708" stop-color="white"/>
<stop offset="1" stop-color="white" stop-opacity="0"/>
</linearGradient>
</defs>
</svg>
