<svg width="29" height="27" viewBox="0 0 29 27" fill="none" xmlns="http://www.w3.org/2000/svg">
<path d="M28.034 13.7806C28.034 12.75 27.941 11.9979 27.7397 11.2179H14.6495V15.8698H22.3332C22.1783 17.0259 21.3418 18.7669 19.4828 19.9368L19.4567 20.0925L23.5956 22.9753L23.8824 23.001C26.5158 20.8143 28.034 17.5969 28.034 13.7806Z" fill="#4285F4"/>
<path d="M14.6494 26.0374C18.4137 26.0374 21.5739 24.9231 23.8822 23.0011L19.4826 19.9368C18.3053 20.675 16.7252 21.1903 14.6494 21.1903C10.9625 21.1903 7.83326 19.0037 6.71778 15.9813L6.55427 15.9938L2.25062 18.9883L2.19434 19.129C4.48703 23.2238 9.1964 26.0374 14.6494 26.0374Z" fill="#34A853"/>
<path d="M6.71748 15.9813C6.42315 15.2013 6.25281 14.3655 6.25281 13.5021C6.25281 12.6385 6.42315 11.8028 6.702 11.0228L6.6942 10.8567L2.33661 7.81409L2.19404 7.87506C1.24911 9.5743 0.706909 11.4825 0.706909 13.5021C0.706909 15.5216 1.24911 17.4297 2.19404 19.1289L6.71748 15.9813Z" fill="#FBBC05"/>
<path d="M14.6494 5.81373C17.2674 5.81373 19.0334 6.83047 20.0403 7.68015L23.9751 4.22596C21.5585 2.2064 18.4137 0.966797 14.6494 0.966797C9.1964 0.966797 4.48703 3.78024 2.19434 7.87506L6.70229 11.0228C7.83326 8.00046 10.9625 5.81373 14.6494 5.81373Z" fill="#EB4335"/>
</svg>
